<svg width="298" height="24" viewBox="0 0 298 24" fill="none" xmlns="http://www.w3.org/2000/svg">
<path d="M170.251 12.2093C168.188 7.74666 155.649 18.284 154.505 20.7613C154.468 20.8613 154.468 20.9627 154.492 21.0373C154.529 21.3027 154.744 21.5413 155.059 21.516C158.479 21.1387 162.251 19.088 165.283 17.592C166.943 16.7747 171.432 14.7507 170.251 12.2093" fill="#3D393A"/>
<path d="M155.473 16.6373C156.353 15.6946 157.209 14.7253 157.976 13.6946C158.805 12.5746 160.127 10.5 158.655 9.34263C155.549 6.92796 153.763 15.5053 153.625 17.316C153.612 17.4173 153.6 17.504 153.6 17.592C153.612 17.7946 153.839 17.9453 154.015 17.9066C154.619 17.8053 155.071 17.064 155.473 16.6373" fill="#3D393A"/>
<path d="M151.7 21.9813C151.223 22.6973 150.217 22.7986 149.815 22.0066C149.488 21.34 149.563 20.4973 150.079 20.02C150.141 20.0066 150.204 19.9813 150.267 19.9186C150.292 19.8813 150.331 19.8573 150.356 19.8306C150.392 19.8053 150.417 19.7813 150.468 19.768C150.481 19.7546 150.493 19.744 150.505 19.7306C151.236 19.4666 152.229 21.1893 151.7 21.9813ZM150.757 18.724C150.657 18.724 150.581 18.7506 150.505 18.7746C150.405 18.724 150.305 18.6986 150.167 18.724C148.544 19.1266 148.217 21.076 148.783 22.4466C149.463 24.1066 151.373 23.9933 152.48 22.836C153.399 21.8933 153.047 20.308 152.229 19.428C151.852 19.0133 151.336 18.6866 150.757 18.724" fill="#3D393A"/>
<path d="M151.248 16.3853C151.248 16.3613 151.236 16.3346 151.248 16.3093C152.857 12.6626 154.028 8.73995 153.536 4.72795C153.311 2.86529 152.405 -0.404046 149.803 0.87862C148.004 1.75995 148.317 5.07996 148.419 6.65063C148.62 9.97196 149.625 13.2293 150.531 16.3973C150.619 16.7506 151.223 16.8386 151.248 16.3853" fill="#3D393A"/>
<path d="M147.727 17.3907C147.601 15.3293 146.205 7.61998 142.784 9.29331C141.112 10.1226 142.521 12.4613 143.187 13.4426C143.917 14.512 144.797 15.492 145.677 16.4347C146.129 16.9013 146.671 17.7947 147.349 17.9067C147.539 17.9453 147.752 17.7813 147.752 17.592C147.752 17.5293 147.74 17.4667 147.727 17.404V17.3907Z" fill="#3D393A"/>
<path d="M131.101 12.2093C129.907 14.776 134.435 16.7626 136.069 17.592C139.063 19.1146 142.911 21.1506 146.305 21.516C146.62 21.5413 146.821 21.2893 146.86 21.0373C146.884 20.9506 146.884 20.8493 146.847 20.7613C145.689 18.2586 133.177 7.74663 131.101 12.2093" fill="#3D393A"/>
<path d="M0.696899 13.6227L29.9901 12.8213L59.2838 12.2227C69.0478 12.048 78.813 11.528 88.5773 11.8213C98.3413 12.0893 108.107 12.5213 117.871 13.6227V14.0227C108.107 15.124 98.3413 15.5547 88.5773 15.8213C78.813 16.116 69.0478 15.596 59.2838 15.4213L29.9901 14.8213L0.696899 14.0227V13.6227" fill="#3D393A"/>
<path d="M297.46 14.0227L268.167 14.8213L238.873 15.4213C229.108 15.596 219.344 16.116 209.58 15.8213C199.815 15.5547 190.051 15.124 180.285 14.0227V13.6227C190.051 12.5213 199.815 12.0893 209.58 11.8213C219.344 11.528 229.108 12.048 238.873 12.2227L268.167 12.8213L297.46 13.6227V14.0227Z" fill="#3D393A"/>
</svg>
