<svg width="227" height="14" viewBox="0 0 227 14" fill="none" xmlns="http://www.w3.org/2000/svg">
<path d="M119.571 7.44667L113.291 1.076C113.177 0.961332 113.001 0.893316 112.813 0.893316C112.812 0.893316 112.812 0.893316 112.809 0.893316C112.624 0.893316 112.448 0.959996 112.335 1.07333L105.956 7.444C105.787 7.612 105.792 7.84666 105.972 8.00933L112.352 13.8107C112.465 13.9147 112.633 13.9747 112.809 13.9747C112.812 13.9747 112.812 13.9747 112.813 13.9747C112.991 13.9733 113.16 13.9133 113.275 13.808L119.553 8.00666C119.729 7.84533 119.735 7.61334 119.571 7.44667" fill="#3D393A"/>
<path d="M93.484 6.23467C93.0333 4.14533 90.192 3.11065 87.6613 3.48398C87.6107 3.49198 87.5627 3.51466 87.512 3.52399C86.9853 3.58666 86.4707 3.69732 86.004 3.89199C84.0027 4.73066 83.5333 6.80534 84.3253 8.30667C84.5693 8.77201 84.8733 9.19867 85.2307 9.57601C85.2507 9.61201 85.2667 9.65065 85.288 9.68799C85.7573 10.4893 86.584 10.848 87.508 10.9347C88.204 11.1333 88.98 11.2173 89.86 11.124C92.6747 10.8267 93.8733 8.04667 93.484 6.23467" fill="#3D393A"/>
<path d="M139.897 6.21333C139.317 4.86933 137.379 3.62398 135.484 3.53065C134.276 3.21065 132.82 3.24399 131.925 4.04533C131.016 4.85466 130.263 5.86798 130.113 6.93198C130.02 7.36931 129.995 7.81463 130.107 8.25063C130.229 8.73463 130.523 9.11599 130.884 9.44132C131.356 10.304 132.333 10.9453 133.721 10.9266C134.027 10.924 134.312 10.8707 134.605 10.8373C135.223 10.864 135.864 10.8133 136.513 10.68C139.077 10.1467 140.756 8.20133 139.897 6.21333" fill="#3D393A"/>
<path d="M9.1609 7.86132L5.21877 3.86132C5.14637 3.79065 5.03904 3.748 4.91931 3.748H4.91824C4.80211 3.748 4.69011 3.78932 4.61931 3.86132L0.615575 7.85998C0.511975 7.96532 0.513974 8.11067 0.628107 8.21467L4.63118 11.856C4.70104 11.92 4.80678 11.9573 4.91824 11.9573H4.91931C5.03171 11.9573 5.13851 11.9186 5.20837 11.8533L9.14944 8.21334C9.2609 8.11067 9.26304 7.96532 9.1609 7.86132" fill="#3D393A"/>
<path d="M15.0036 7.71996C17.4407 7.21063 19.8781 6.98663 22.3151 6.81996C24.7521 6.67196 27.1896 6.58799 29.626 6.74399C32.064 6.91065 34.5005 7.3453 36.938 7.41996C39.3751 7.51063 41.8125 7.3733 44.2495 7.12263C46.6869 6.8613 49.124 6.6653 51.5615 6.59197C53.9979 6.48263 56.4349 6.40664 58.8724 6.43064C63.7469 6.55331 68.6213 6.8613 73.496 7.71996V7.98663C68.6213 8.84396 63.7469 9.15198 58.8724 9.27465C56.4349 9.29998 53.9979 9.22265 51.5615 9.11332C49.124 9.04132 46.6869 8.84399 44.2495 8.58266C41.8125 8.33332 39.3751 8.19463 36.938 8.28529C34.5005 8.35996 32.064 8.79597 29.626 8.96264C27.1896 9.1173 24.7521 9.0333 22.3151 8.88663C19.8781 8.71996 17.4407 8.49596 15.0036 7.98663V7.71996" fill="#3D393A"/>
<path d="M226.107 7.58267L222.165 3.58397C222.095 3.5133 221.985 3.46932 221.867 3.46932H221.864C221.748 3.46932 221.637 3.51067 221.567 3.58267L217.563 7.58C217.456 7.68667 217.46 7.83332 217.575 7.93465L221.577 11.576C221.648 11.6413 221.753 11.6787 221.864 11.6787H221.867C221.979 11.6787 222.084 11.64 222.156 11.5747L226.096 7.93332C226.207 7.83199 226.209 7.688 226.107 7.58267" fill="#3D393A"/>
<path d="M151.936 7.71996C154.373 7.21063 156.811 6.98663 159.248 6.81996C161.685 6.67196 164.123 6.58799 166.559 6.74399C168.997 6.91065 171.433 7.3453 173.871 7.41996C176.308 7.51063 178.745 7.3733 181.183 7.12263C183.62 6.8613 186.056 6.6653 188.495 6.59197C190.931 6.48263 193.368 6.40664 195.805 6.43064C200.68 6.55331 205.555 6.8613 210.429 7.71996V7.98663C205.555 8.84396 200.68 9.15198 195.805 9.27465C193.368 9.29998 190.931 9.22265 188.495 9.11332C186.056 9.04132 183.62 8.84399 181.183 8.58266C178.745 8.33332 176.308 8.19463 173.871 8.28529C171.433 8.35996 168.997 8.79597 166.559 8.96264C164.123 9.1173 161.685 9.0333 159.248 8.88663C156.811 8.71996 154.373 8.49596 151.936 7.98663V7.71996" fill="#3D393A"/>
</svg>
